<svg width="24" height="24" viewBox="0 0 24 24" fill="none" xmlns="http://www.w3.org/2000/svg">
<path d="M14.6948 13.7C14.6948 13.1477 15.1425 12.7 15.6948 12.7H15.7038C16.2561 12.7 16.7038 13.1477 16.7038 13.7C16.7038 14.2523 16.2561 14.7 15.7038 14.7H15.6948C15.1425 14.7 14.6948 14.2523 14.6948 13.7Z" fill="white"/>
<path d="M15.6948 15.7C15.1425 15.7 14.6948 16.1477 14.6948 16.7C14.6948 17.2523 15.1425 17.7 15.6948 17.7H15.7038C16.2561 17.7 16.7038 17.2523 16.7038 16.7C16.7038 16.1477 16.2561 15.7 15.7038 15.7H15.6948Z" fill="white"/>
<path d="M10.9956 13.7C10.9956 13.1477 11.4433 12.7 11.9956 12.7H12.0046C12.5569 12.7 13.0046 13.1477 13.0046 13.7C13.0046 14.2523 12.5569 14.7 12.0046 14.7H11.9956C11.4433 14.7 10.9956 14.2523 10.9956 13.7Z" fill="white"/>
<path d="M11.9956 15.7C11.4433 15.7 10.9956 16.1477 10.9956 16.7C10.9956 17.2523 11.4433 17.7 11.9956 17.7H12.0046C12.5569 17.7 13.0046 17.2523 13.0046 16.7C13.0046 16.1477 12.5569 15.7 12.0046 15.7H11.9956Z" fill="white"/>
<path d="M7.29443 13.7C7.29443 13.1477 7.74215 12.7 8.29443 12.7H8.30342C8.8557 12.7 9.30342 13.1477 9.30342 13.7C9.30342 14.2523 8.8557 14.7 8.30342 14.7H8.29443C7.74215 14.7 7.29443 14.2523 7.29443 13.7Z" fill="white"/>
<path d="M8.29443 15.7C7.74215 15.7 7.29443 16.1477 7.29443 16.7C7.29443 17.2523 7.74215 17.7 8.29443 17.7H8.30342C8.8557 17.7 9.30342 17.2523 9.30342 16.7C9.30342 16.1477 8.8557 15.7 8.30342 15.7H8.29443Z" fill="white"/>
<path fill-rule="evenodd" clip-rule="evenodd" d="M9 2C9 1.44772 8.55228 1 8 1C7.44772 1 7 1.44772 7 2V2.55342C5.52234 2.71775 4.32081 3.26182 3.45471 4.19455C2.41318 5.31619 2 6.84671 2 8.5V17C2 18.6533 2.41318 20.1838 3.45471 21.3055C4.50869 22.4405 6.0594 23 8 23H16C17.9406 23 19.4913 22.4405 20.5453 21.3055C21.5868 20.1838 22 18.6533 22 17V8.5C22 6.84671 21.5868 5.31619 20.5453 4.19455C19.6792 3.26182 18.4777 2.71775 17 2.55342V2C17 1.44772 16.5523 1 16 1C15.4477 1 15 1.44772 15 2V2.5H9V2ZM7 4.56933V5C7 5.55228 7.44772 6 8 6C8.55228 6 9 5.55228 9 5V4.5H15V5C15 5.55228 15.4477 6 16 6C16.5523 6 17 5.55228 17 5V4.56933C17.9841 4.71635 18.6427 5.08482 19.0797 5.55545C19.6022 6.11812 19.9269 6.95432 19.9891 8.08997H4.01094C4.07312 6.95432 4.39782 6.11812 4.92029 5.55545C5.35731 5.08482 6.01591 4.71635 7 4.56933ZM4 10.09V17C4 18.3467 4.33682 19.3162 4.92029 19.9445C5.49131 20.5595 6.4406 21 8 21H16C17.5594 21 18.5087 20.5595 19.0797 19.9445C19.6632 19.3162 20 18.3467 20 17V10.09H4Z" fill="white"/>
</svg>
