<svg width="102" height="88" viewBox="0 0 102 88" fill="none" xmlns="http://www.w3.org/2000/svg">
<mask id="mask0_390_43084" style="mask-type:alpha" maskUnits="userSpaceOnUse" x="32" y="5" width="55" height="51">
<path d="M82.2063 5.51758L86.3445 55.2658H32.458L82.2063 5.51758Z" fill="#D9D9D9"/>
</mask>
<g mask="url(#mask0_390_43084)">
<circle cx="56.0796" cy="29.1372" r="23.6938" fill="white"/>
<g filter="url(#filter0_b_390_43084)">
<path d="M27.679 29.1693C27.679 44.8362 40.3796 57.5368 56.0466 57.5368C71.7135 57.5368 84.4141 44.8362 84.4141 29.1693C84.4141 13.5023 71.7135 0.801758 56.0466 0.801758C40.3796 0.801758 27.679 13.5023 27.679 29.1693ZM76.2543 29.1693C76.2543 40.3297 67.207 49.377 56.0466 49.377C44.8861 49.377 35.8388 40.3297 35.8388 29.1693C35.8388 18.0088 44.8861 8.9615 56.0466 8.9615C67.207 8.9615 76.2543 18.0088 76.2543 29.1693Z" fill="white" fill-opacity="0.01"/>
</g>
</g>
<mask id="mask1_390_43084" style="mask-type:alpha" maskUnits="userSpaceOnUse" x="14" y="8" width="58" height="50">
<path d="M21.8523 57.7783L14.801 8.03011L71.6006 8.0301L21.8523 57.7783Z" fill="#D9D9D9"/>
</mask>
<g mask="url(#mask1_390_43084)">
<circle cx="47.979" cy="34.1587" r="23.6938" transform="rotate(180 47.979 34.1587)" fill="white"/>
<g filter="url(#filter1_b_390_43084)">
<path d="M76.3818 34.1266C76.3818 18.4597 63.6812 5.75912 48.0142 5.75912C32.3473 5.75912 19.6467 18.4597 19.6467 34.1266C19.6467 49.7936 32.3473 62.4941 48.0142 62.4941C63.6812 62.4941 76.3818 49.7936 76.3818 34.1266ZM27.8065 34.1266C27.8065 22.9662 36.8538 13.9189 48.0142 13.9189C59.1747 13.9189 68.222 22.9662 68.222 34.1266C68.222 45.2871 59.1747 54.3344 48.0142 54.3344C36.8538 54.3344 27.8065 45.2871 27.8065 34.1266Z" fill="white" fill-opacity="0.01"/>
</g>
</g>
<path d="M0.936 69.352C0.936 68.328 1.2 67.424 1.728 66.64C2.256 65.856 2.984 65.248 3.912 64.816C4.856 64.368 5.944 64.144 7.176 64.144C8.36 64.144 9.384 64.352 10.248 64.768C11.128 65.184 11.808 65.776 12.288 66.544C12.784 67.312 13.048 68.224 13.08 69.28H10.008C9.976 68.528 9.704 67.944 9.192 67.528C8.68 67.096 7.992 66.88 7.128 66.88C6.184 66.88 5.424 67.096 4.848 67.528C4.288 67.944 4.008 68.52 4.008 69.256C4.008 69.88 4.176 70.376 4.512 70.744C4.864 71.096 5.408 71.36 6.144 71.536L8.904 72.16C10.408 72.48 11.528 73.032 12.264 73.816C13 74.584 13.368 75.624 13.368 76.936C13.368 78.008 13.104 78.952 12.576 79.768C12.048 80.584 11.296 81.216 10.32 81.664C9.36 82.096 8.232 82.312 6.936 82.312C5.704 82.312 4.624 82.104 3.696 81.688C2.768 81.256 2.04 80.656 1.512 79.888C1 79.12 0.728 78.216 0.696 77.176H3.768C3.784 77.912 4.072 78.496 4.632 78.928C5.208 79.344 5.984 79.552 6.96 79.552C7.984 79.552 8.792 79.344 9.384 78.928C9.992 78.496 10.296 77.928 10.296 77.224C10.296 76.616 10.136 76.136 9.816 75.784C9.496 75.416 8.976 75.16 8.256 75.016L5.472 74.392C3.984 74.072 2.856 73.496 2.088 72.664C1.32 71.816 0.936 70.712 0.936 69.352ZM14.7791 70.144H22.2671V72.592H14.7791V70.144ZM19.9871 82H17.0591V66.448H19.9871V82ZM27.8091 82.312C26.5611 82.312 25.5691 81.976 24.8331 81.304C24.1131 80.616 23.7531 79.72 23.7531 78.616C23.7531 77.528 24.1291 76.664 24.8811 76.024C25.6491 75.368 26.7371 74.984 28.1451 74.872L31.6971 74.584V74.32C31.6971 73.776 31.5931 73.344 31.3851 73.024C31.1931 72.688 30.9131 72.448 30.5451 72.304C30.1771 72.144 29.7451 72.064 29.2491 72.064C28.3851 72.064 27.7211 72.24 27.2571 72.592C26.7931 72.928 26.5611 73.408 26.5611 74.032H24.0651C24.0651 73.168 24.2811 72.424 24.7131 71.8C25.1611 71.16 25.7851 70.664 26.5851 70.312C27.4011 69.96 28.3371 69.784 29.3931 69.784C30.4651 69.784 31.3851 69.976 32.1531 70.36C32.9211 70.728 33.5131 71.288 33.9291 72.04C34.3451 72.776 34.5531 73.696 34.5531 74.8V82H31.9851L31.7691 80.248C31.5131 80.856 31.0171 81.352 30.2811 81.736C29.5611 82.12 28.7371 82.312 27.8091 82.312ZM28.7451 80.104C29.6571 80.104 30.3771 79.848 30.9051 79.336C31.4491 78.824 31.7211 78.112 31.7211 77.2V76.576L29.2491 76.768C28.3371 76.848 27.6891 77.04 27.3051 77.344C26.9211 77.632 26.7291 78.016 26.7291 78.496C26.7291 79.024 26.9051 79.424 27.2571 79.696C27.6091 79.968 28.1051 80.104 28.7451 80.104ZM45.1095 70.096V72.808H44.0295C42.9575 72.808 42.1175 73.096 41.5095 73.672C40.9015 74.232 40.5975 75.088 40.5975 76.24V82H37.6695V70.168H40.4295L40.6695 72.616H40.3815C40.5415 71.832 40.9175 71.192 41.5095 70.696C42.1015 70.2 42.8695 69.952 43.8135 69.952C44.0215 69.952 44.2295 69.96 44.4375 69.976C44.6455 69.992 44.8695 70.032 45.1095 70.096ZM47.7154 69.352C47.7154 68.328 47.9794 67.424 48.5074 66.64C49.0354 65.856 49.7634 65.248 50.6914 64.816C51.6354 64.368 52.7234 64.144 53.9554 64.144C55.1394 64.144 56.1634 64.352 57.0274 64.768C57.9074 65.184 58.5874 65.776 59.0674 66.544C59.5634 67.312 59.8274 68.224 59.8594 69.28H56.7874C56.7554 68.528 56.4834 67.944 55.9714 67.528C55.4594 67.096 54.7714 66.88 53.9074 66.88C52.9634 66.88 52.2034 67.096 51.6274 67.528C51.0674 67.944 50.7874 68.52 50.7874 69.256C50.7874 69.88 50.9554 70.376 51.2914 70.744C51.6434 71.096 52.1874 71.36 52.9234 71.536L55.6834 72.16C57.1874 72.48 58.3074 73.032 59.0434 73.816C59.7794 74.584 60.1474 75.624 60.1474 76.936C60.1474 78.008 59.8834 78.952 59.3554 79.768C58.8274 80.584 58.0754 81.216 57.0994 81.664C56.1394 82.096 55.0114 82.312 53.7154 82.312C52.4834 82.312 51.4034 82.104 50.4754 81.688C49.5474 81.256 48.8194 80.656 48.2914 79.888C47.7794 79.12 47.5074 78.216 47.4754 77.176H50.5474C50.5634 77.912 50.8514 78.496 51.4114 78.928C51.9874 79.344 52.7634 79.552 53.7394 79.552C54.7634 79.552 55.5714 79.344 56.1634 78.928C56.7714 78.496 57.0754 77.928 57.0754 77.224C57.0754 76.616 56.9154 76.136 56.5954 75.784C56.2754 75.416 55.7554 75.16 55.0354 75.016L52.2514 74.392C50.7634 74.072 49.6354 73.496 48.8674 72.664C48.0994 71.816 47.7154 70.712 47.7154 69.352ZM64.4865 70.144L68.3505 81.088L66.7665 84.088L61.3905 70.144H64.4865ZM61.7025 87.496V85.072H63.4545C63.8385 85.072 64.1745 85.024 64.4625 84.928C64.7505 84.848 65.0065 84.688 65.2305 84.448C65.4705 84.208 65.6705 83.856 65.8305 83.392L70.7505 70.144H73.7745L67.9665 84.64C67.5345 85.728 66.9905 86.52 66.3345 87.016C65.6785 87.512 64.8625 87.76 63.8865 87.76C63.4705 87.76 63.0785 87.736 62.7105 87.688C62.3585 87.656 62.0225 87.592 61.7025 87.496ZM78.6056 82H75.6776V70.144H78.3896L78.6296 71.68C78.9976 71.088 79.5176 70.624 80.1896 70.288C80.8776 69.952 81.6216 69.784 82.4216 69.784C83.9096 69.784 85.0296 70.224 85.7816 71.104C86.5496 71.984 86.9336 73.184 86.9336 74.704V82H84.0056V75.4C84.0056 74.408 83.7816 73.672 83.3336 73.192C82.8856 72.696 82.2776 72.448 81.5096 72.448C80.5976 72.448 79.8856 72.736 79.3736 73.312C78.8616 73.888 78.6056 74.656 78.6056 75.616V82ZM89.3544 76.048C89.3544 74.832 89.6024 73.752 90.0984 72.808C90.6104 71.864 91.3064 71.128 92.1864 70.6C93.0824 70.056 94.1144 69.784 95.2824 69.784C96.8984 69.784 98.2184 70.208 99.2424 71.056C100.282 71.888 100.882 73.016 101.042 74.44H98.1144C97.9384 73.768 97.6104 73.264 97.1304 72.928C96.6664 72.576 96.0824 72.4 95.3784 72.4C94.7704 72.4 94.2264 72.552 93.7464 72.856C93.2824 73.144 92.9224 73.56 92.6664 74.104C92.4104 74.648 92.2824 75.296 92.2824 76.048C92.2824 76.8 92.4024 77.448 92.6424 77.992C92.8824 78.536 93.2264 78.96 93.6744 79.264C94.1384 79.552 94.6824 79.696 95.3064 79.696C96.0424 79.696 96.6504 79.52 97.1304 79.168C97.6264 78.816 97.9544 78.312 98.1144 77.656H101.066C100.938 78.584 100.61 79.4 100.082 80.104C99.5704 80.792 98.9064 81.336 98.0904 81.736C97.2744 82.12 96.3464 82.312 95.3064 82.312C94.1064 82.312 93.0584 82.056 92.1624 81.544C91.2664 81.016 90.5704 80.288 90.0744 79.36C89.5944 78.416 89.3544 77.312 89.3544 76.048Z" fill="white"/>
<defs>
<filter id="filter0_b_390_43084" x="24.0358" y="-2.84142" width="64.0215" height="64.0217" filterUnits="userSpaceOnUse" color-interpolation-filters="sRGB">
<feFlood flood-opacity="0" result="BackgroundImageFix"/>
<feGaussianBlur in="BackgroundImageFix" stdDeviation="1.82159"/>
<feComposite in2="SourceAlpha" operator="in" result="effect1_backgroundBlur_390_43084"/>
<feBlend mode="normal" in="SourceGraphic" in2="effect1_backgroundBlur_390_43084" result="shape"/>
</filter>
<filter id="filter1_b_390_43084" x="16.0035" y="2.11561" width="64.0215" height="64.0217" filterUnits="userSpaceOnUse" color-interpolation-filters="sRGB">
<feFlood flood-opacity="0" result="BackgroundImageFix"/>
<feGaussianBlur in="BackgroundImageFix" stdDeviation="1.82159"/>
<feComposite in2="SourceAlpha" operator="in" result="effect1_backgroundBlur_390_43084"/>
<feBlend mode="normal" in="SourceGraphic" in2="effect1_backgroundBlur_390_43084" result="shape"/>
</filter>
</defs>
</svg>
